<?xml version="1.0" encoding="UTF-8" standalone="no"?>
<svg
   version="1.1"
   id="svg2"
   viewBox="0 0 570.26666 518.52002"
   fill="currentColor"
   xmlns="http://www.w3.org/2000/svg"
>
   <g transform="matrix(1.3333333,0,0,-1.3333333,0,518.52)">
         <g transform="scale(0.1)">
            <path
               d="m 265.133,3866.28 c 79.433,2.96 158.867,8.32 238.305,8.36 145.839,1.22 290.425,1.7 459.554,-5.41 68.398,-2.08 136.628,-13.22 204.568,-22.66 21.82,-3.03 43.69,-11.57 63.38,-21.57 23.48,-11.91 23.07,-26.05 0.05,-39.51 -54.03,-31.6 -78.94,-79.36 -77.8,-138.26 1,-51.15 6.83,-102.35 13.08,-153.23 14.04,-114.17 28.97,-228.25 44.83,-342.2 19.91,-143.12 40.97,-286.1 61.85,-429.1 5.49,-37.62 12.88,-74.99 18.05,-112.65 8.73,-63.64 28.81,-124.02 53.49,-183.24 17.26,-41.4 34.24,-82.92 51.31,-124.39 2.18,-5.3 4.5,-10.57 6.26,-16 6.59,-20.34 1.69,-28.34 -20.66,-30.08 -33.28,-2.59 -66.66,-5.2 -100.01,-5.52 -150.26,-1.46 -300.519,-2.44 -450.781,-2.95 -97.238,-0.32 -194.484,0.39 -291.726,0.87 -11.324,0.06 -22.641,1.59 -34.039,2.44 -3.793,17.87 7.937,23.96 17.758,28.43 34.535,15.72 68.507,34.58 104.972,43.89 65.317,16.66 132.285,27.23 198.559,40.38 40.355,8.01 80.683,16.15 121.051,24.11 37.214,7.34 62.996,29.09 81.996,59.89 23.02,37.3 35.72,78.06 43.17,120.47 9.3,52.98 9.76,105.95 -2.82,158.62 -10.95,45.81 -43.79,76.82 -91.878,78.62 -82.39,3.08 -164.933,2.52 -247.414,3.39 -21.105,0.22 -42.218,0.04 -65.511,0.05 3.48,15.26 13.398,18.54 21.613,22.2 58.203,25.9 117.902,46.41 182.508,52.3 30.101,2.75 60.082,9.01 89.484,16.12 39.426,9.53 63.198,34.99 65.688,74.61 1.84,29.2 2.32,59.11 -1.95,87.95 -26.566,179.59 -51.222,359.6 -99.476,535.39 -6.5,23.67 -16.766,46.62 -27.688,68.8 -6.176,12.55 -15.883,24.23 -26.398,33.83 -20.356,18.59 -44.297,19.58 -62.438,-0.78 -16.297,-18.3 -30.875,-39.97 -39.215,-62.57 -17.46,-47.32 -33.5,-95.56 -44.453,-144.61 -31.3,-140.16 -61.117,-280.66 -89,-421.5 C 599.969,2901.9 570,2732.35 514.938,2568.3 c -22.477,-66.97 -48.309,-132.78 -83.235,-194.61 -16.359,-28.96 -35.527,-57.19 -57.797,-82.09 -32.09,-35.87 -74.234,-48.41 -122.636,-34.87 -22.809,6.38 -27.141,18.06 -11.247,35.02 76.043,81.09 111.532,179.83 133.321,284.54 21.578,103.72 28.726,209.04 35.773,314.32 10.547,157.62 26.805,314.39 69.02,467.66 33.363,121.12 81.554,235.9 152.433,341.25 2.145,3.18 4.457,6.31 6.168,9.71 7.543,15 4.274,23.24 -12.73,27.31 -22.84,5.46 -46.176,8.95 -69.074,14.21 -79.325,18.23 -157.379,40.5 -232.489,71.54 -14.394,5.94 -28.375,13.05 -41.871,20.73 -6.969,3.97 -12.453,10.37 -18.605,15.68 1.054,2.53 2.105,5.05 3.164,7.58"
            />
            <path
               d="m 1916.86,3519.48 c 1.44,-0.12 2.88,-0.24 4.33,-0.35 -0.01,-31.38 -0.52,-62.76 0.15,-94.12 0.46,-21.72 7.26,-25.12 30.64,-19.79 3.93,0.89 7.85,2.01 11.69,3.25 87.9,28.39 177.7,45.31 270.91,45.24 30.22,-0.03 60.99,3.17 90.52,9.3 43.95,9.13 70.49,39.65 74.2,81.66 9.55,108.07 -43.88,201.45 -162.69,232.71 -57.88,15.22 -116.58,15.56 -175.3,7.58 -72.9,-9.9 -117.43,-51.25 -129.25,-121.26 -8.03,-47.6 -10.34,-96.11 -15.2,-144.22 z m 802.48,-572.22 c 6.35,-9.04 3.33,-21.42 -6.39,-26.83 -18.27,-10.19 -37.55,-11.97 -56.84,-10.45 -69.17,5.47 -123.53,36.03 -157.37,95.86 -12.67,22.39 -21.95,46.63 -32.22,70.26 -38.03,87.54 -94.48,160.04 -182.41,205.71 -74.25,38.56 -153.81,57.75 -238.22,50.33 -78.95,-6.95 -123.92,-50.78 -135.49,-127.09 -11.82,-78.01 20.42,-140.82 92.51,-177.88 64.96,-33.4 136.05,-48.18 207.44,-61.58 84.48,-15.86 188.78,-86.49 178.12,-95.96 -11.01,-9.79 -128.61,51.58 -279.73,51.85 -367.78,9.59 -438.07,-225.58 -463.25,-218.77 -50.7,10.14 68.67,125.24 61.91,538.31 -1.84,112.19 -0.44,224.4 -1.06,336.6 -0.13,22.79 -0.98,45.65 -2.84,68.37 -5.78,70.96 -39.41,124.16 -107.09,155.48 -11.43,5.29 -22.97,11.32 -32.5,19.22 -3.86,3.2 -7.36,6.8 -10.96,10.86 -10.17,11.5 -3,29.92 12.46,30.81 0.08,0 0.17,0.01 0.26,0.01 74.52,3.74 149.04,8.69 223.61,9.84 144.37,2.25 288.78,2.42 433.17,3.12 66.89,0.33 133.67,-1.61 198.46,-20.32 90.2,-26.06 156.29,-77.85 186.89,-166.61 23.32,-67.63 15.61,-131.86 -27.52,-189.81 -17.6,-23.65 -39.92,-44.34 -61.97,-64.43 -23.77,-21.66 -27.34,-26.68 -15.39,-56.77 26.41,-66.49 53.9,-132.57 81.08,-198.78 5.43,-13.23 12.12,-26.02 17.11,-39.4 23.25,-62.4 57.71,-118.39 101.28,-169.41 5.93,-6.94 11.21,-14.38 16.95,-22.54"
            />
            <path
               d="m 3884.85,2229.1 c -13.89,-3.03 -27.63,-7.23 -41.69,-8.9 -102.65,-12.2 -205.89,-13.19 -308.96,-10.31 -131.52,3.68 -262.97,10.41 -394.38,16.93 -31.27,1.55 -62.46,6.64 -93.4,11.74 -13.33,2.2 -21.88,5.91 -27.63,12.98 -8.71,10.68 -0.01,26.53 13.86,25.55 7.57,-0.53 15.02,-1.13 22.43,-1.99 42.13,-4.92 84.1,-6.41 126.07,1.73 60.87,11.81 105.52,44.15 133.4,97.81 21.48,41.33 31.16,85.86 36.54,131.42 11.54,97.7 5.52,195.64 4.33,293.52 -1.96,162.58 -3.97,325.16 -4.87,487.74 -0.83,151.2 -0.08,302.41 -0.36,453.62 -0.07,36.87 -17.63,50.47 -54.39,42.26 -42.17,-9.41 -74.42,-33.15 -98.83,-67.3 -19.84,-27.76 -32.15,-58.69 -40.08,-91.3 -38.26,-157.16 -76.1,-314.42 -114.56,-471.54 -34.44,-140.74 -57.42,-283.24 -75.79,-426.73 -11.7,-91.33 -29.99,-181.9 -46.57,-272.6 -2.89,-15.79 -23.15,-66.32 -25.68,-48.18 -1.08,11.42 -2.8,19.15 -2.39,26.77 4.43,80.7 8.76,161.41 13.94,242.06 14.16,220.16 31.85,440.21 25.55,661.06 -4.93,172.37 -23.45,343.22 -67.64,510.81 -1.45,5.48 -2.83,11.06 -3.39,16.67 -1.22,12.15 7.57,23.33 19.9,24.54 8.95,0.88 18.03,0.35 27.05,0.34 262.32,-0.24 524.64,-0.67 786.96,-0.65 86.44,0.01 172.89,1.29 259.33,1.76 12.74,0.07 25.6,-0.29 38.22,-1.85 34.56,-4.27 54.09,-22.35 54.55,-56.27 0.39,-29.22 -2.16,-59.05 -8.11,-87.69 -38.95,-187.5 -66.29,-376.45 -81.35,-567.19 -17.33,-219.34 -19.56,-438.72 -6.74,-658.33 1.43,-24.48 -1.53,-49.28 -3.78,-73.82 -0.49,-5.32 -5.85,-13.3 -10.52,-14.54 -9.77,-2.58 -12.84,6 -14.55,13.8 -11.19,51.09 -23.12,102.05 -33.32,153.33 -28.46,143.01 -43.35,287.59 -54.7,432.72 -12.3,157.31 -27.22,314.46 -52.37,470.48 -9.45,58.61 -25.97,115.03 -57.6,166.54 -25.52,41.58 -58.75,75.92 -100.84,102.15 -13.59,8.47 -27.28,16.13 -43.65,7.1 -15.15,-8.36 -15.52,-22.73 -15.88,-37.37 -4.29,-176.79 -10.13,-353.56 -12.81,-530.37 -3.14,-207.25 -3.66,-414.54 -5.12,-621.82 -0.36,-51.51 4.4,-102.58 18.17,-152.52 24.51,-88.94 80.74,-145.8 176.3,-163.01 37.62,-6.78 75.12,-14.19 112.52,-22.01 11.19,-2.34 21.85,-7.02 32.74,-10.62 0.03,-2.84 0.06,-5.68 0.09,-8.52"
            />

            <path
               d="m 2720.84,2280.24 c 123.48,-160.37 192.33,-466.66 143.46,-677.76 -57.8,-249.89 -257.95,-332.82 -483.32,-416.62 -181.78,-67.09 -420.24,-47.69 -591.07,52.38 -27.22,16.23 -47.74,28.79 -72.96,46.08 -41.48,28.83 -97.19,77.55 -128.17,115.33 -40.51,48.66 -41.49,46.03 -79.85,103.64 -61.13,92.11 -128.8,280.53 -144.59,378.8 -5.81,36.11 -37.28,62.45 -73.88,62.3 -294.218,-1.27 -1243.3233,-0.97 -1277.5303,59.28 0,0 -42.1719,45.39 25.8008,41.38 289.7225,-17.05 1199.6895,-3.51 1281.0995,-2.44 98.85,1.27 99.97,-66.8 160.76,-329.69 24.53,-106.09 81.36,-158.32 149.68,-232.11 59.37,-64.5 137.11,-125.78 234.25,-168.73 218.58,-95.83 453.38,-76.48 626.26,49.25 165.99,120.51 275.79,317.48 264.26,548.51 -6.35,129.94 -63.08,247.26 -129.74,323.74 -56.24,64.45 -122.99,114.73 -205.42,147.23 -209.63,81.7 -433.39,15.14 -540.06,-193.85 -211.24,-414.38 325.69,-705.12 459.67,-373.04 22.92,56.51 -18.44,197.92 -159.79,218.19 -0.14,0.02 -0.28,-0.01 -0.42,-0.01 -18.21,-0.1 -30.01,19.57 -20.06,34.83 74.46,114.19 316.81,-14.86 283.23,-244.06 -18.42,-126.27 -113.51,-230.55 -232.74,-253.57 -193.31,-37.72 -417.75,108.39 -478.64,280.25 -72.02,202.2 26.83,399.22 163.41,529.69 12.07,11.54 18.42,18.86 31.52,28.78 36.79,27.86 67.24,50.34 112.49,70.22 55.65,24.09 124.5,43.44 197.51,42.42 76.13,-0.54 141.75,-11.49 205.43,-35.04 112.34,-41.44 206.4,-110.09 279.41,-205.38"
            />
            <path
               d="m 4276.94,2019.4 c 2.4,-36.55 -451.41,-71.49 -488.16,-71.73 0,0 -26.09,-0.1 -68.85,-0.1 -186.13,0 -688.07,1.86 -730.83,21.55 -91.62,42.17 -77.54,210.02 -264.5,421.66 -56.98,64.5 -137.7,121.96 -234.36,163.4 -219.01,93.77 -453.37,74.91 -626.69,-47.64 -165.51,-116.84 -275.31,-308.1 -263.78,-532.83 6.36,-126.27 63.09,-239.88 129.25,-314.3 56.74,-62.84 123.48,-111.56 205.92,-142.98 209.68,-79.7 433.43,-14.71 540.06,188.08 211.19,402.85 -365.56,698.73 -459.73,362.53 -21.14,-75.56 42.73,-187.13 164.43,-175.71 1.44,0.13 2.87,0.04 4.29,0.12 22.08,1.33 38.22,-20.86 28.5,-40.74 -61.39,-125.62 -326.07,-19.03 -302.23,208.47 12.66,122.6 115.62,223.16 234.85,245.64 193.31,36.7 425.47,-72.51 486.89,-239.1 72.03,-196.43 -35.62,-420.92 -171.71,-548.26 -12.07,-10.95 -18.38,-18.33 -31.52,-27.76 -36.75,-26.73 -67.24,-48.76 -112.44,-68.07 -55.7,-23.65 -124.46,-41.97 -198.05,-41.38 -75.64,1.02 -141.76,11.53 -204.84,34.01 -112.93,40.31 -206.46,107.35 -279.46,199.56 -123.53,156.12 -165.51,353.15 -116.64,558.48 57.81,242.52 185.98,462.36 410.81,542.99 181.82,65.53 465.39,8.11 636.66,-89.33 27.36,-15.19 47.79,-27.75 73.05,-44.56 41,-28.2 97.2,-75.4 128.23,-111.51 40.41,-48.23 41.48,-45.1 79.79,-101.1 60.64,-88.99 135.11,-297.96 412.81,-324.81 117.64,-11.37 1017.52,-13.15 1018.25,-24.58"
            />

            <path
               d="m 230.547,13.0898 c 8.699,6.8399 16.758,14.75 26.234,20.3086 24,14.0899 47.977,28.5118 73.16,40.293 56.239,26.3206 92.817,69.7066 116.704,124.9886 26.945,62.371 35.23,128.07 35.585,195.129 1.508,285.332 3.188,570.652 4.2,855.981 0.273,76.69 -11.801,151.6 -41.59,222.96 -17.746,42.51 -42.02,81.23 -72.887,115.83 -5.074,5.68 -10.687,11.25 -14.277,17.81 -11.098,20.29 -0.258,43.98 22.5,48.89 11.246,2.43 22.926,3.17 34.461,3.96 169.332,11.61 338.687,24.14 508.578,20.5 76.086,-1.63 152.065,-7.9 228.095,-12.11 4.81,-0.26 9.7,-0.41 14.38,-1.43 14.55,-3.14 19.88,-11.95 12.78,-24.89 -13.97,-25.45 -32.43,-47.66 -59.36,-60.51 -9,-4.29 -20.55,-4.9 -30.89,-4.7 -36.63,0.68 -73.23,3.3 -109.853,3.51 -29.832,0.17 -59.738,-1.26 -89.504,-3.42 -69.054,-4.99 -113.699,-41.81 -137.472,-104.91 -19.731,-52.38 -26.149,-107.06 -27.825,-162.35 -4.668,-153.99 -9.218,-307.98 -12.972,-462 C 707,699.582 703.922,552.211 701.762,404.832 700.98,351.57 704.676,298.371 717.457,246.23 c 7.773,-31.718 19.809,-61.582 39.629,-88 44.016,-58.6792 110.555,-78.1792 179.629,-51.71 64.575,24.742 104.935,73.289 128.215,135.441 23.01,61.461 45.98,123.289 62.96,186.527 38.93,145.082 72.76,291.492 111.45,436.633 27.67,103.777 59.88,206.369 90.07,309.489 0.54,1.82 1.09,3.66 1.86,5.4 4.71,10.63 4.8,27.71 22.77,23.21 17.06,-4.28 11.1,-19.97 10.34,-31.44 -14.86,-223.198 -20.58,-446.518 -8.68,-670.03 6.27,-117.781 18.18,-235.039 35.97,-351.75 3.98,-26.109 4.59,-53.1602 3.07,-79.5703 C 1392,22.7813 1371.02,4.76172 1322.91,4.48828 1044.18,2.94922 765.465,1.19141 486.738,0.0390625 413.453,-0.261719 340.156,1.21875 266.867,2.19141 c -11.281,0.14843 -22.539,2.00781 -33.808,3.07812 -0.84,2.60938 -1.676,5.21097 -2.512,7.82027"
            />
            <path
               d="m 1974.04,387.441 c -0.01,0.059 -0.01,0.071 -0.02,0.129 -6.34,7.649 61.63,27.481 94.41,27.782 53.99,0.488 108,-0.133 161.99,0.679 17.23,0.258 34.69,2.301 51.57,5.75 36.93,7.559 52.09,28.098 48.52,65.61 -1.7,17.91 -4.58,35.961 -9.38,53.289 -20.81,75.109 -42.1,150.109 -64.22,224.851 -5.64,19.051 -14.3,37.34 -22.78,55.418 -5.63,11.992 -12.31,23.832 -20.43,34.313 -39.82,51.429 -94,51.039 -130.84,-2.383 -16.13,-23.391 -28.52,-49.57 -40.41,-75.469 -38.66,-84.18 -64.2,-172.949 -92.77,-260.691 -24.14,-74.149 -48.26,-148.43 -76.51,-221.098 C 1842.29,216.172 1799,143.129 1740.1,80 1711.35,49.1797 1677.72,26.2617 1634.97,18.9102 c -8.46,-1.4493 -17.16,-2.0196 -25.77,-2.1016 -9.44,-0.0898 -18.65,4.5898 -23.11,12.9297 -6.58,12.3125 -4.42,22.9805 3.9,32.4531 1.89,2.1367 4.07,4.0586 6.27,5.9102 63.17,53.2384 95.4,123.4494 110.28,201.8394 10.09,53.168 16.58,107.047 23.26,160.789 9.65,77.649 24.99,153.872 54.5,226.782 28.9,71.418 79.9,194.437 133.33,250.547 0.04,0.043 0.08,0.089 0.12,0.132 8.2,8.579 8.97,21.797 1.43,30.969 -35.06,42.649 -140.4,122.74 -180.5,165.93 -8.14,8.77 2.62,22.05 12.73,15.67 83.07,-52.41 355.33,-235.928 800.22,-12.75 6.77,3.4 13.59,-4.67 8.98,-10.69 -40.75,-53.27 -117.43,-184.531 -74.43,-394.121 35.61,-141.027 71.15,-282.09 108.31,-422.719 19.06,-72.16 51.94,-139.242 89.66,-203.4292 23.55,-40.082 10.04,-59.3516 -35.46,-60.5117 -171.56,-4.3789 -343.04,-11.85941 -514.6,-16.269569 -53.85,-1.378911 -107.88,2.949219 -161.8,5.300779 -11.45,0.5 -23.73,1.73828 -33.89,6.35159 -10.83,4.9179 -20.94,13.0898 -28.92,21.9687 -7.69,8.5508 -12.65,20.8985 -4.58,31.4883 7.91,10.3828 19.99,4.8711 29.5,1.4102 87.51,-31.8399 174.25,-24.9493 260.38,4.8125 30.87,10.6679 61.93,21.4492 91.38,35.3204 56.63,26.687 94.84,69.406 100.19,133.078 5.18,61.461 -17.41,100.879 -91.99,108.531 -102.56,10.508 -305.15,26.989 -320.32,38.91"
            />
            <path
               d="m 3256.5,1007.39 c -1.69,-37.851 -4.39,-66.359 -3.79,-94.812 0.52,-24.598 11.26,-31.898 35.74,-28.726 5.69,0.738 11.34,2.25 16.84,3.91 32.22,9.738 64.62,18.968 96.53,29.597 64.04,21.34 129.65,29 196.71,22.141 36.76,-3.762 64.98,9.531 83.33,39.59 12.25,20.082 23.62,42.3 28.23,64.98 10.2,50.17 19.68,101.02 22.57,151.98 4.82,84.78 -17.16,163.98 -66.13,234.83 -47.42,68.62 -113.82,103.45 -197.58,106.07 -60.01,1.88 -110.38,-18.49 -143.95,-68.91 -13.5,-20.28 -24.86,-43.71 -30.04,-67.23 -8.96,-40.7 -14.08,-82.45 -17.73,-124.02 -8.15,-92.82 -14.41,-185.81 -20.73,-269.4 z m -0.38,-574.249 c 1.88,-21.403 4.06,-64.192 9.79,-106.512 6.53,-48.207 19.57,-94.949 43.93,-137.918 25.43,-44.871 61.01,-77.84 111.49,-93.879 105.33,-33.4804 224.27,8.457 283.8,100.328 22.57,34.84 37.1,72.969 46.29,113.102 21.95,95.84 22.02,192.316 7.85,289.129 -7.62,52.109 -21.51,102.339 -48.31,148.379 -28.02,48.14 -66.87,84.691 -122.66,97.25 -88.02,19.82 -166.38,-0.348 -231.23,-63.918 -32.75,-32.102 -53.71,-71.582 -69.13,-114.133 -24.67,-68.098 -31.25,-138.828 -31.82,-231.828 z m 87.28,1241.069 c 97.38,-0.03 194.89,-3.21 292.11,0.63 156.83,6.18 274.71,-127.34 295.75,-244.72 15.27,-85.2 7.6,-168.96 -15.11,-251.23 -18.19,-65.9 -41.64,-130.4 -62.66,-195.538 -6.43,-19.911 -12.63,-39.883 -18.81,-59.864 -4.03,-13.008 -0.95,-24.16 8.8,-33.918 14.89,-14.898 29.48,-30.09 44.08,-45.269 125.42,-130.442 174.95,-285.781 154.31,-463.25 -4.81,-41.403 -13.07,-82.571 -22.41,-123.262 C 4000.57,175.559 3949.57,117.641 3874.79,78.7695 3815.75,48.0781 3751.58,36.0586 3686.33,27.8789 3600.06,17.0703 3513.31,16.3594 3426.51,14.8984 3273.25,12.3203 3120,8.32031 2966.75,4.71094 c -12.49,-0.30078 -24.93,-2.44922 -37.43,-3.30078 -10.23,-0.699222 -21.6,-4.96094 -29.25,5.91015 -8.01,11.39059 0.97,19.89059 6.4,28.30079 33.35,51.5781 59.14,106.6989 79.07,164.4809 28.38,82.277 45.41,167.097 53.32,253.449 20.5,224 17.91,448.398 4.76,672.569 -9.65,164.62 -38.1,326.5 -88.96,484.09 -12.06,37.39 1.52,58.9 41.73,62.98 30.6,3.11 61.6,3.02 92.43,3.15 84.86,0.36 169.72,0.08 254.58,0.05 0,-0.73 0,-1.45 0,-2.18"
            />
         </g>
   </g>
</svg>